<svg width="20" height="20" viewBox="0 0 20 20" fill="none" xmlns="http://www.w3.org/2000/svg">
<g clip-path="url(#clip0_571_3236)">
<path fill-rule="evenodd" clip-rule="evenodd" d="M10.8867 13.3835C10.6523 13.6175 10.3346 13.749 10.0033 13.749C9.67208 13.749 9.35438 13.6175 9.12 13.3835L4.405 8.67012C4.17062 8.43563 4.03898 8.11763 4.03906 7.78608C4.0391 7.62191 4.07147 7.45936 4.13433 7.30771C4.19719 7.15605 4.28931 7.01826 4.40542 6.90221C4.52153 6.78615 4.65936 6.6941 4.81105 6.63131C4.96273 6.56852 5.1253 6.53623 5.28946 6.53627C5.45363 6.53631 5.61618 6.56868 5.76784 6.63154C5.91949 6.6944 6.05728 6.78651 6.17333 6.90262L10.0033 10.7318L13.8333 6.90179C13.9486 6.78235 14.0865 6.68706 14.2389 6.62147C14.3914 6.55589 14.5554 6.52133 14.7214 6.51981C14.8874 6.51829 15.052 6.54984 15.2056 6.61262C15.3593 6.6754 15.4989 6.76815 15.6163 6.88546C15.7337 7.00277 15.8266 7.14229 15.8895 7.29588C15.9525 7.44947 15.9842 7.61406 15.9828 7.78003C15.9814 7.946 15.947 8.11004 15.8816 8.26258C15.8162 8.41512 15.721 8.55309 15.6017 8.66846L10.8867 13.3851V13.3835Z" fill="black"/>
</g>
<defs>
<clipPath id="clip0_571_3236">
<rect width="20" height="20" fill="white" transform="matrix(0 -1 1 0 0 20)"/>
</clipPath>
</defs>
</svg>
